 <svg version="1.0" xmlns="http://www.w3.org/2000/svg" width="700.000000pt" height="210.000000pt" viewBox="0 0 700.000000 210.000000" preserveAspectRatio="xMidYMid meet">
<metadata>
Created by potrace 1.12, written by Peter Selinger 2001-2015
</metadata>
<g transform="translate(0.000000,210.000000) scale(0.100000,-0.100000)" fill="#000000" stroke="none">
<path d="M680 1795 c0 -68 9 -91 25 -65 3 6 44 10 91 10 l84 0 0 -194 c0 -119
-4 -197 -10 -201 -27 -16 -3 -25 70 -25 73 0 97 9 70 25 -6 4 -10 82 -10 201
l0 194 83 0 c53 0 88 -5 95 -12 20 -20 32 8 32 74 0 63 -8 74 -36 53 -29 -22
-446 -22 -464 0 -23 28 -30 15 -30 -60z"></path>
<path d="M3020 1825 c0 -8 5 -15 10 -15 6 0 10 -83 10 -229 0 -143 -4 -232
-10 -236 -27 -17 -2 -25 75 -25 84 0 99 6 70 30 -12 10 -15 49 -15 230 0 181
3 220 15 230 29 24 14 30 -70 30 -69 0 -85 -3 -85 -15z"></path>
<path d="M1256 1752 c-3 -5 1 -22 9 -38 31 -63 135 -348 135 -370 0 -23 3 -24
65 -24 64 0 65 1 59 24 -5 21 65 226 86 249 11 13 92 -223 85 -250 -5 -22 -4
-23 71 -23 72 0 76 1 71 20 -6 23 115 355 140 382 24 26 7 38 -56 38 -64 0
-74 -5 -62 -29 6 -11 -5 -55 -37 -139 -41 -107 -62 -146 -62 -111 0 5 -18 58
-40 117 -29 75 -39 115 -34 135 l6 28 -74 -3 -73 -3 3 -31 c2 -27 -51 -195
-77 -242 -8 -15 -11 -13 -21 13 -40 105 -78 225 -77 241 2 16 -6 19 -55 22
-31 2 -59 -1 -62 -6z"></path>
<path d="M2187 1744 c-157 -49 -199 -266 -73 -371 49 -40 96 -53 192 -53 102
0 146 13 194 56 111 101 88 285 -45 353 -62 32 -192 39 -268 15z m221 -101
c23 -19 42 -45 50 -72 13 -38 12 -45 -10 -88 -71 -143 -298 -98 -298 59 0 119
158 181 258 101z"></path>
<path d="M3403 1740 c-72 -32 -101 -106 -68 -170 18 -35 87 -62 199 -79 84
-12 106 -23 106 -51 0 -65 -235 -51 -260 16 -5 13 -14 24 -19 24 -11 0 -53
-98 -48 -113 6 -18 147 -47 232 -47 57 0 92 6 122 20 105 47 110 176 10 220
-23 10 -78 24 -121 30 -103 15 -126 25 -126 50 0 57 169 53 239 -6 l30 -25 25
44 c31 52 32 67 8 67 -10 0 -43 9 -75 20 -76 27 -196 27 -254 0z"></path>
<path d="M3886 1751 c-3 -5 1 -14 9 -21 23 -19 22 -356 -1 -382 -14 -14 -14
-18 -3 -22 8 -3 107 -7 222 -8 l207 -3 0 53 c0 51 -6 62 -26 42 -7 -7 -62 -10
-145 -8 l-134 3 -3 154 c-2 127 0 157 13 171 8 9 12 20 8 23 -10 10 -141 8
-147 -2z"></path>
<path d="M4560 1736 c0 -29 -145 -352 -172 -382 -10 -11 -18 -23 -18 -27 0 -4
32 -7 71 -7 68 0 71 1 66 22 -3 11 1 34 9 50 l15 28 103 0 104 0 12 -29 c6
-16 9 -39 5 -50 -6 -20 -3 -21 69 -21 42 0 76 3 76 7 0 3 -6 14 -14 22 -24 27
-176 361 -176 387 0 23 -2 24 -75 24 -73 0 -75 -1 -75 -24z m100 -156 c16 -33
30 -62 30 -65 0 -3 -27 -5 -60 -5 -33 0 -60 2 -60 4 0 8 53 126 56 126 2 0 17
-27 34 -60z"></path>
<path d="M4998 1559 c2 -132 0 -205 -7 -213 -17 -20 -2 -26 66 -26 58 0 78 9
53 25 -6 4 -10 60 -9 138 l0 132 125 -130 c68 -71 124 -137 124 -147 0 -16 10
-18 70 -18 64 0 86 9 60 25 -14 9 -13 368 1 382 20 20 -1 33 -56 33 -55 0 -76
-13 -56 -33 7 -7 11 -56 11 -131 l-1 -121 -115 119 c-63 65 -119 129 -124 142
-9 22 -15 24 -77 24 l-68 0 3 -201z"></path>
<path d="M5630 1747 c0 -9 5 -19 10 -22 6 -4 10 -78 10 -190 0 -112 -4 -186
-10 -190 -35 -21 2 -26 174 -23 l184 3 39 31 c21 16 48 50 61 75 20 38 23 55
19 121 -4 93 -34 145 -100 180 -38 20 -59 23 -214 26 -151 3 -173 2 -173 -11z
m340 -87 c46 -25 64 -126 35 -196 -20 -49 -65 -66 -168 -62 l-82 3 -3 124 c-1
69 0 131 3 139 4 12 23 14 99 9 52 -3 104 -11 116 -17z"></path>
<path d="M2647 1593 c-2 -5 -3 -33 -3 -63 1 -44 4 -54 16 -50 8 3 56 5 105 5
50 0 96 -2 104 -5 11 -4 14 7 14 55 -1 55 -13 80 -28 56 -8 -14 -172 -14 -180
-1 -7 12 -22 13 -28 3z"></path>
<path d="M1785 820 c-5 -8 -2 -18 8 -25 15 -11 17 -39 17 -230 0 -188 -2 -221
-16 -237 -15 -16 -15 -18 -1 -24 9 -3 110 -4 224 -2 193 3 211 5 250 26 24 12
49 35 58 52 32 62 11 146 -45 175 l-30 16 35 30 c70 61 52 152 -39 198 -46 24
-60 25 -251 29 -157 4 -204 2 -210 -8z m396 -100 c12 -7 19 -21 19 -40 0 -43
-23 -50 -154 -50 l-116 0 0 50 0 50 116 0 c63 0 124 -5 135 -10z m18 -214 c29
-27 27 -62 -6 -83 -21 -14 -53 -19 -145 -22 l-118 -3 0 67 0 67 124 -4 c105
-2 127 -6 145 -22z"></path>
<path d="M4990 750 c-8 -5 -95 -10 -192 -10 -98 0 -178 -4 -178 -8 0 -4 5 -13
11 -19 7 -7 9 -77 7 -212 l-3 -201 180 0 c99 0 190 -3 203 -6 21 -6 22 -3 22
48 0 30 -3 57 -6 60 -3 4 -17 0 -32 -8 -30 -15 -227 -20 -250 -5 -9 5 -12 24
-10 52 l3 44 78 3 c48 2 84 -2 93 -8 22 -19 34 -2 34 50 0 52 -12 69 -34 50
-9 -6 -45 -10 -93 -8 l-78 3 -3 43 -3 43 128 -3 c70 -2 135 -5 143 -8 12 -4
16 7 18 53 3 59 -5 69 -38 47z"></path>
<path d="M3180 743 c-67 -4 -97 -17 -67 -29 15 -5 17 -28 17 -194 0 -161 -2
-189 -16 -194 -34 -13 1 -26 71 -26 70 0 105 13 71 26 -14 5 -16 33 -16 191 0
161 2 187 17 198 15 11 11 38 -5 33 -4 -1 -36 -3 -72 -5z"></path>
<path d="M4150 736 c-100 -27 -153 -79 -171 -169 -24 -118 40 -219 160 -254
76 -22 217 -14 288 16 l51 23 -5 72 c-4 49 -2 75 6 80 29 19 3 26 -93 26 -59
0 -108 4 -111 10 -3 6 -13 10 -21 10 -10 0 -14 -14 -14 -55 0 -55 12 -69 37
-44 5 5 32 9 59 7 45 -3 49 -5 49 -28 0 -31 -45 -49 -125 -49 -108 -1 -180 55
-180 138 0 93 57 141 169 141 73 0 109 -12 137 -46 l21 -26 30 56 c32 58 32
66 -1 66 -12 1 -46 9 -76 20 -62 22 -144 24 -210 6z"></path>
<path d="M2480 731 c0 -5 7 -14 15 -21 14 -11 15 -40 12 -189 -1 -97 -7 -186
-11 -198 -8 -22 -6 -23 56 -23 69 0 84 6 67 26 -5 7 -9 43 -7 81 l3 68 39 3
c22 2 49 1 61 -2 28 -7 99 -109 101 -144 1 -26 3 -27 69 -30 98 -4 106 1 63
46 -58 61 -104 135 -87 140 8 3 31 22 52 42 32 33 37 44 37 83 0 57 -32 98
-88 115 -46 14 -382 17 -382 3z m340 -84 c33 -17 37 -51 8 -71 -17 -12 -47
-16 -120 -16 l-98 0 0 50 0 50 93 0 c54 0 102 -6 117 -13z"></path>
<path d="M3410 731 c0 -6 5 -13 10 -16 14 -9 13 -368 -1 -382 -26 -26 4 -33
154 -33 84 0 169 5 190 11 129 35 186 209 111 336 -19 34 -39 51 -77 69 -48
22 -64 24 -219 24 -99 0 -168 -4 -168 -9z m361 -109 c25 -28 29 -40 29 -92 0
-115 -30 -140 -170 -140 l-90 0 0 136 0 136 101 -4 c99 -3 101 -3 130 -36z"></path>
</g>
</svg>