 <svg version="1.0" xmlns="http://www.w3.org/2000/svg" width="700.000000pt" height="207.000000pt" viewBox="0 0 700.000000 207.000000" preserveAspectRatio="xMidYMid meet">
<metadata>
Created by potrace 1.12, written by Peter Selinger 2001-2015
</metadata>
<g transform="translate(0.000000,207.000000) scale(0.100000,-0.100000)" fill="#000000" stroke="none">
<path d="M860 1788 l0 -53 92 0 93 0 -2 -172 c0 -95 -4 -177 -8 -183 -3 -5 -3
-19 0 -30 6 -19 14 -21 98 -18 55 2 91 7 89 13 -1 6 -36 9 -87 6 -57 -2 -85 1
-85 8 0 7 23 11 60 11 l60 0 0 186 0 185 90 -3 90 -3 0 53 0 52 -245 0 -245 0
0 -52z"></path>
<path d="M1368 1768 c-4 -78 -2 -92 13 -83 12 8 12 155 0 155 -5 0 -11 -33
-13 -72z"></path>
<path d="M3127 1603 c2 -131 3 -246 3 -256 0 -16 9 -17 93 -15 52 2 91 7 89
13 -1 5 -39 8 -87 6 -56 -2 -85 1 -85 8 0 7 23 11 58 11 l57 0 0 235 0 235
-65 0 -65 0 2 -237z"></path>
<path d="M3279 1818 c-5 -25 -3 -368 2 -368 11 0 18 86 21 238 2 100 0 132 -9
132 -7 0 -13 -1 -14 -2z"></path>
<path d="M1437 1754 c-3 -3 -2 -14 3 -23 15 -27 110 -325 110 -344 0 -14 10
-17 65 -17 36 0 65 4 65 9 0 28 84 241 92 233 12 -12 78 -199 78 -222 0 -18 7
-20 63 -20 l62 0 59 178 c32 97 62 182 67 188 14 17 -1 24 -53 24 -43 0 -48
-2 -48 -22 0 -29 -57 -219 -69 -231 -9 -9 -65 127 -84 206 l-12 47 -62 0 c-60
0 -63 -1 -63 -24 0 -32 -76 -232 -87 -227 -9 5 -73 207 -73 234 0 14 -9 17
-53 17 -30 0 -56 -3 -60 -6z"></path>
<path d="M2355 1751 c-70 -18 -124 -61 -144 -114 -15 -39 -14 -111 3 -150 15
-38 76 -94 111 -103 16 -4 25 -13 25 -25 0 -10 5 -19 10 -19 6 0 10 7 10 15 0
12 14 15 68 15 104 0 193 50 221 123 24 63 8 148 -38 201 -43 49 -183 79 -266
57z m143 -85 c61 -31 83 -89 58 -149 -18 -44 -60 -67 -121 -67 -61 0 -103 23
-122 67 -25 62 -3 115 62 151 28 16 91 15 123 -2z"></path>
<path d="M2392 1649 c-20 -6 -40 -22 -52 -42 -21 -34 -27 -77 -10 -77 6 0 10
10 10 21 0 29 65 89 96 89 13 0 24 5 24 10 0 12 -23 12 -68 -1z"></path>
<path d="M3525 1745 c-79 -28 -119 -107 -80 -161 16 -23 96 -48 187 -59 97
-11 127 -60 52 -85 -39 -13 -160 1 -207 25 -26 13 -28 12 -36 -8 -24 -63 -24
-67 2 -67 14 0 39 -3 56 -6 25 -5 30 -10 26 -25 -4 -13 -1 -19 9 -19 9 0 16 7
16 15 0 12 16 15 85 15 94 0 149 19 179 62 16 23 21 73 10 103 -11 28 -79 54
-172 66 -68 9 -96 17 -109 31 -17 19 -17 21 6 39 34 27 137 29 200 3 19 -8 35
-13 36 -12 8 10 36 70 33 72 -2 1 -33 8 -69 14 -87 16 -175 14 -224 -3z"></path>
<path d="M3969 1756 c-2 -2 -3 -90 -1 -195 l3 -191 194 0 195 0 0 40 0 39
-137 3 -138 3 -3 153 -3 152 -53 0 c-29 0 -55 -2 -57 -4z"></path>
<path d="M4614 1743 c-10 -30 -105 -255 -130 -307 -13 -28 -24 -53 -24 -58 0
-4 20 -8 44 -8 42 0 45 2 60 40 l16 40 111 0 110 0 17 -40 c17 -39 18 -40 70
-40 28 0 52 3 52 6 0 4 -36 81 -79 173 -43 91 -81 175 -83 186 -3 18 -12 20
-81 23 -67 2 -78 0 -83 -15z m122 -149 c19 -41 32 -80 29 -85 -8 -12 -142 -12
-150 0 -6 11 66 161 78 161 4 0 24 -34 43 -76z"></path>
<path d="M4667 1585 c-19 -41 -21 -55 -7 -55 9 0 40 62 40 81 0 21 -17 7 -33
-26z"></path>
<path d="M5094 1576 c4 -125 3 -187 -4 -191 -21 -13 -1 -20 49 -17 l51 4 0
129 c0 71 4 129 9 129 15 0 221 -227 221 -244 0 -13 11 -16 55 -16 l55 0 0
195 0 195 -50 0 -50 0 0 -100 c0 -55 -4 -100 -8 -100 -12 0 -157 161 -165 183
-5 14 -19 17 -88 17 l-82 0 7 -184z"></path>
<path d="M5698 1568 c-2 -106 -2 -203 0 -216 l4 -24 173 4 173 3 39 31 c21 17
46 45 55 61 21 34 36 153 21 153 -6 0 -13 -22 -16 -50 -9 -71 -34 -118 -80
-148 -39 -26 -47 -27 -199 -30 -109 -3 -158 0 -158 7 0 7 46 11 140 11 96 0
151 4 173 14 44 18 95 78 103 122 10 54 -2 144 -24 173 -49 67 -96 80 -274 81
l-127 0 -3 -192z m285 92 c49 -38 58 -118 21 -174 -17 -27 -97 -50 -156 -44
l-33 3 -3 118 -3 117 74 0 c59 0 79 -4 100 -20z"></path>
<path d="M5830 1555 c0 -43 4 -75 10 -75 6 0 10 32 10 75 0 43 -4 75 -10 75
-6 0 -10 -32 -10 -75z"></path>
<path d="M1573 1725 c-3 -9 -3 -18 0 -21 9 -9 27 6 27 22 0 19 -19 18 -27 -1z"></path>
<path d="M1865 1731 c-6 -11 9 -23 19 -14 9 9 7 23 -3 23 -6 0 -12 -4 -16 -9z"></path>
<path d="M2115 1728 c-53 -157 -106 -331 -101 -336 13 -12 25 16 70 163 26 82
51 154 56 159 6 6 10 14 10 18 0 13 -30 9 -35 -4z"></path>
<path d="M4107 1733 c-11 -11 -8 -233 3 -233 6 0 10 40 10 101 0 55 5 109 10
120 8 14 7 19 -3 19 -8 0 -17 -3 -20 -7z"></path>
<path d="M4800 1730 c0 -5 5 -10 11 -10 5 0 7 5 4 10 -3 6 -8 10 -11 10 -2 0
-4 -4 -4 -10z"></path>
<path d="M5557 1733 c-11 -11 -8 -343 3 -343 6 0 10 60 10 159 0 96 4 162 10
166 6 3 10 10 10 16 0 10 -23 12 -33 2z"></path>
<path d="M3824 1695 c-8 -19 -19 -35 -24 -35 -13 0 -13 -37 0 -45 5 -3 21 19
35 51 29 65 28 64 14 64 -5 0 -17 -16 -25 -35z"></path>
<path d="M887 1713 c-4 -3 -7 -12 -7 -20 0 -10 5 -11 19 -3 11 5 42 10 70 10
28 0 51 5 51 10 0 11 -123 14 -133 3z"></path>
<path d="M1202 1708 c-15 -15 -17 -318 -2 -318 6 0 10 59 10 156 l0 156 63 -2
c79 -3 85 -2 67 10 -21 14 -124 12 -138 -2z"></path>
<path d="M3585 1660 c-3 -5 1 -10 9 -10 9 0 16 5 16 10 0 6 -4 10 -9 10 -6 0
-13 -4 -16 -10z"></path>
<path d="M2750 1563 l0 -48 107 3 c60 2 109 5 110 5 0 1 3 20 5 42 l3 40 -113
3 -112 3 0 -48z"></path>
<path d="M2990 1575 c0 -8 5 -15 10 -15 6 0 10 7 10 15 0 8 -4 15 -10 15 -5 0
-10 -7 -10 -15z"></path>
<path d="M2690 1548 c0 -18 -11 -56 -23 -83 -32 -67 -99 -106 -199 -113 -37
-2 -68 -9 -68 -15 0 -6 30 -8 78 -5 114 7 182 47 217 130 17 42 20 118 5 118
-5 0 -10 -15 -10 -32z"></path>
<path d="M1751 1518 c-5 -13 -16 -40 -25 -62 -18 -43 -22 -86 -6 -70 16 16 60
154 49 154 -5 0 -13 -10 -18 -22z"></path>
<path d="M2987 1520 c-5 -18 -14 -20 -106 -20 -61 0 -101 -4 -101 -10 0 -10
222 -15 232 -5 7 8 -3 55 -12 55 -4 0 -10 -9 -13 -20z"></path>
<path d="M5210 1460 c0 -40 4 -70 10 -70 6 0 10 30 10 70 0 40 -4 70 -10 70
-6 0 -10 -30 -10 -70z"></path>
<path d="M3530 1510 c0 -5 7 -10 15 -10 8 0 15 5 15 10 0 6 -7 10 -15 10 -8 0
-15 -4 -15 -10z"></path>
<path d="M3580 1500 c0 -5 11 -10 25 -10 14 0 25 5 25 10 0 6 -11 10 -25 10
-14 0 -25 -4 -25 -10z"></path>
<path d="M3660 1490 c0 -5 7 -10 15 -10 8 0 15 5 15 10 0 6 -7 10 -15 10 -8 0
-15 -4 -15 -10z"></path>
<path d="M3850 1469 c0 -40 -52 -93 -105 -108 -22 -6 -68 -11 -102 -11 -40 0
-63 -4 -63 -11 0 -8 28 -10 93 -7 105 5 147 22 177 71 21 34 27 97 10 97 -5 0
-10 -14 -10 -31z"></path>
<path d="M4380 1401 c0 -28 -5 -53 -10 -56 -8 -5 -7 -11 1 -21 6 -7 15 -11 20
-8 12 7 11 134 -1 134 -5 0 -10 -22 -10 -49z"></path>
<path d="M3270 1416 c0 -24 12 -41 22 -30 8 7 -3 54 -13 54 -5 0 -9 -11 -9
-24z"></path>
<path d="M4591 1408 c-5 -13 -12 -31 -15 -40 -4 -14 -17 -18 -61 -18 -32 0
-55 -4 -55 -10 0 -7 25 -10 68 -8 51 2 67 6 67 18 0 8 4 25 8 38 8 20 14 22
93 22 49 0 84 4 84 10 0 6 -37 10 -90 10 -84 0 -91 -1 -99 -22z"></path>
<path d="M3440 1360 c0 -5 5 -10 10 -10 6 0 10 5 10 10 0 6 -4 10 -10 10 -5 0
-10 -4 -10 -10z"></path>
<path d="M3480 1360 c0 -5 5 -10 10 -10 6 0 10 5 10 10 0 6 -4 10 -10 10 -5 0
-10 -4 -10 -10z"></path>
<path d="M1633 1352 c-46 -1 -83 -7 -83 -13 0 -6 36 -9 93 -7 53 2 91 7 90 13
-2 12 1 11 -100 7z"></path>
<path d="M1933 1353 c-46 -2 -83 -8 -83 -14 0 -13 190 -7 191 6 0 12 -3 12
-108 8z"></path>
<path d="M4903 1353 c-35 -2 -63 -8 -63 -14 0 -13 150 -7 151 6 0 12 -7 12
-88 8z"></path>
<path d="M5163 1352 c-35 -1 -63 -7 -63 -13 0 -6 29 -9 73 -7 40 2 71 7 70 13
-2 12 -3 12 -80 7z"></path>
<path d="M5493 1353 c-102 -5 -92 -23 12 -23 69 0 85 3 85 15 0 8 -6 14 -12
13 -7 -1 -46 -4 -85 -5z"></path>
<path d="M3970 1340 c0 -6 68 -10 185 -10 117 0 185 4 185 10 0 6 -68 10 -185
10 -117 0 -185 -4 -185 -10z"></path>
<path d="M1995 626 l0 -236 193 0 c158 0 200 3 228 16 50 24 74 59 74 108 0
51 -21 83 -67 102 -32 14 -37 34 -9 34 7 0 23 12 37 26 26 28 31 83 10 122
-25 47 -62 56 -271 60 l-195 4 0 -236z m349 128 c20 -19 20 -35 2 -59 -12 -16
-28 -19 -117 -19 l-104 -1 -3 48 -3 47 105 0 c82 0 108 -3 120 -16z m16 -179
c23 -21 26 -53 6 -81 -13 -17 -27 -19 -128 -19 l-113 0 -3 49 c-5 80 -6 79
113 74 83 -4 109 -9 125 -23z"></path>
<path d="M2180 740 c0 -6 30 -10 70 -10 40 0 70 4 70 10 0 6 -30 10 -70 10
-40 0 -70 -4 -70 -10z"></path>
<path d="M2650 585 l0 -195 50 0 49 0 3 73 3 72 46 3 47 3 36 -59 c20 -33 36
-67 36 -76 0 -13 12 -16 65 -16 51 0 64 3 58 13 -4 7 -26 39 -48 71 -38 56
-39 60 -21 70 51 29 78 63 86 106 7 40 6 46 -24 78 -41 43 -80 51 -253 52
l-133 0 0 -195z m291 109 c25 -22 24 -49 -1 -74 -18 -18 -31 -20 -103 -18
l-82 3 -3 52 c-4 61 1 64 102 58 46 -3 75 -10 87 -21z"></path>
<path d="M2777 683 c-11 -10 -8 -53 3 -53 6 0 10 14 10 30 0 31 -2 35 -13 23z"></path>
<path d="M3220 775 c0 -3 0 -90 0 -195 0 -104 0 -199 0 -210 0 -18 7 -20 86
-20 63 0 85 3 82 12 -3 9 -27 12 -81 9 -51 -2 -77 1 -77 8 0 7 21 11 50 11
l50 0 0 185 c0 102 0 188 0 193 0 8 -110 16 -110 7z"></path>
<path d="M3515 586 l0 -196 150 0 c137 0 154 2 190 23 79 44 110 175 66 274
-33 71 -76 86 -256 91 l-150 4 0 -196z m268 103 c27 -12 57 -67 57 -105 0 -37
-26 -91 -49 -104 -12 -6 -54 -12 -94 -13 l-72 -2 -3 118 -3 117 70 0 c39 0 81
-5 94 -11z"></path>
<path d="M3720 670 c0 -5 9 -10 20 -10 11 0 20 5 20 10 0 6 -9 10 -20 10 -11
0 -20 -4 -20 -10z"></path>
<path d="M3647 663 c-11 -10 -8 -173 2 -173 5 0 11 41 13 90 3 85 0 99 -15 83z"></path>
<path d="M4176 769 c-60 -14 -103 -46 -125 -93 -24 -49 -28 -131 -7 -179 15
-38 66 -84 102 -93 15 -4 24 -13 24 -25 0 -10 5 -19 10 -19 6 0 10 7 10 15 0
12 16 15 80 15 55 0 100 7 143 21 74 25 84 33 68 53 -8 10 -12 37 -9 72 l3 58
-103 3 -103 4 3 -32 c3 -32 4 -32 53 -33 l50 -1 0 -35 c0 -34 -1 -35 -50 -44
-131 -22 -224 65 -184 171 22 57 59 78 137 78 44 0 79 -6 101 -18 19 -9 35
-17 36 -17 2 0 5 12 8 28 3 15 8 34 12 42 11 30 -171 50 -259 29z"></path>
<path d="M4640 778 c0 -2 -1 -89 -3 -195 l-2 -192 203 -3 202 -3 0 38 0 37
-145 0 -145 0 0 50 0 49 98 3 97 3 0 29 0 29 -97 -2 -98 -2 0 45 0 46 145 0
145 0 0 35 0 35 -200 0 c-110 0 -200 -1 -200 -2z"></path>
<path d="M5057 718 c-5 -56 -2 -72 14 -63 11 8 12 115 0 115 -5 0 -11 -24 -14
-52z"></path>
<path d="M3357 753 c-11 -11 -8 -343 3 -343 6 0 10 60 10 159 0 96 4 162 10
166 6 3 10 10 10 16 0 10 -23 12 -33 2z"></path>
<path d="M4463 738 c-38 -61 -54 -113 -32 -106 16 5 60 106 49 113 -5 3 -12 0
-17 -7z"></path>
<path d="M2493 703 c-4 -10 -15 -29 -25 -42 -21 -27 -14 -48 9 -29 14 11 43
68 43 83 0 13 -21 3 -27 -12z"></path>
<path d="M4234 679 c-16 -5 -40 -19 -52 -32 -25 -27 -42 -97 -23 -97 6 0 11 7
11 15 0 50 60 105 115 105 14 0 25 5 25 10 0 12 -33 12 -76 -1z"></path>
<path d="M4990 680 c0 -5 7 -10 15 -10 8 0 15 5 15 10 0 6 -7 10 -15 10 -8 0
-15 -4 -15 -10z"></path>
<path d="M3076 625 c-5 -23 -20 -45 -47 -69 -43 -36 -38 -61 6 -32 33 22 55
57 62 100 7 47 -12 48 -21 1z"></path>
<path d="M4967 568 c-5 -56 -2 -72 14 -63 11 8 12 115 0 115 -5 0 -11 -24 -14
-52z"></path>
<path d="M3960 558 c0 -49 -27 -114 -58 -141 -40 -37 -91 -46 -244 -47 -99 0
-148 -4 -148 -11 0 -7 53 -10 173 -7 197 3 224 12 265 85 25 46 42 163 23 163
-6 0 -11 -17 -11 -42z"></path>
<path d="M4500 520 c0 -27 5 -50 10 -50 6 0 10 23 10 50 0 28 -4 50 -10 50 -5
0 -10 -22 -10 -50z"></path>
<path d="M2510 505 c0 -53 -23 -89 -71 -111 -38 -17 -67 -19 -246 -19 -156 0
-203 -3 -203 -12 0 -17 376 -18 435 -2 21 6 54 26 72 44 29 29 33 40 33 84 0
28 -4 51 -10 51 -5 0 -10 -16 -10 -35z"></path>
<path d="M4800 530 c0 -6 28 -10 65 -10 37 0 65 4 65 10 0 6 -28 10 -65 10
-37 0 -65 -4 -65 -10z"></path>
<path d="M2777 513 c-11 -10 -8 -103 2 -103 6 0 11 19 13 43 2 35 7 43 26 45
12 2 22 8 22 13 0 10 -53 12 -63 2z"></path>
<path d="M4295 509 c-4 -6 -5 -13 -2 -15 7 -8 57 7 57 17 0 13 -47 11 -55 -2z"></path>
<path d="M5060 418 c0 -18 -3 -43 -6 -55 -5 -17 -2 -23 10 -23 13 0 16 11 16
55 0 30 -4 55 -10 55 -5 0 -10 -15 -10 -32z"></path>
<path d="M4495 421 c-22 -21 -150 -51 -216 -51 -45 0 -69 -4 -69 -11 0 -21
186 -5 259 22 60 23 78 41 49 47 -7 1 -18 -2 -23 -7z"></path>
<path d="M2718 372 c-38 -1 -68 -7 -68 -13 0 -13 150 -7 151 6 1 12 0 12 -83
7z"></path>
<path d="M2988 372 c-95 -5 -68 -23 30 -20 50 2 86 7 85 13 -3 10 -25 12 -115
7z"></path>
<path d="M4640 360 c0 -6 72 -10 195 -10 123 0 195 4 195 10 0 6 -72 10 -195
10 -123 0 -195 -4 -195 -10z"></path>
</g>
</svg>